<?xml version="1.0" encoding="UTF-8" standalone="no"?>
<!-- Created with Inkscape (http://www.inkscape.org/) -->

<svg
   width="145.60849mm"
   height="131.0479mm"
   viewBox="0 0 145.60849 131.0479"
   version="1.1"
   id="svg5"
   inkscape:version="1.1 (c68e22c387, 2021-05-23)"
   sodipodi:docname="gramps-citationcard.svg"
   xmlns:inkscape="http://www.inkscape.org/namespaces/inkscape"
   xmlns:sodipodi="http://sodipodi.sourceforge.net/DTD/sodipodi-0.dtd"
   xmlns:xlink="http://www.w3.org/1999/xlink"
   xmlns="http://www.w3.org/2000/svg"
   xmlns:svg="http://www.w3.org/2000/svg">
  <sodipodi:namedview
     id="namedview7"
     pagecolor="#ffffff"
     bordercolor="#666666"
     borderopacity="1.0"
     inkscape:pageshadow="2"
     inkscape:pageopacity="0.0"
     inkscape:pagecheckerboard="0"
     inkscape:document-units="mm"
     showgrid="false"
     inkscape:zoom="0.64854097"
     inkscape:cx="155.73419"
     inkscape:cy="282.94281"
     inkscape:window-width="1284"
     inkscape:window-height="1011"
     inkscape:window-x="1787"
     inkscape:window-y="5"
     inkscape:window-maximized="0"
     inkscape:current-layer="layer1" />
  <defs
     id="defs2">
    <linearGradient
       inkscape:collect="always"
       id="linearGradient4356">
      <stop
         style="stop-color:#000000;stop-opacity:1;"
         offset="0"
         id="stop4358" />
      <stop
         style="stop-color:#000000;stop-opacity:0;"
         offset="1"
         id="stop4360" />
    </linearGradient>
    <linearGradient
       id="linearGradient4344">
      <stop
         style="stop-color:#727e0a;stop-opacity:1;"
         offset="0"
         id="stop4346" />
      <stop
         style="stop-color:#5b6508;stop-opacity:1.0000000;"
         offset="1.0000000"
         id="stop4348" />
    </linearGradient>
    <linearGradient
       id="linearGradient4338">
      <stop
         id="stop4340"
         offset="0.0000000"
         style="stop-color:#e9b15e;stop-opacity:1.0000000;" />
      <stop
         id="stop4342"
         offset="1.0000000"
         style="stop-color:#966416;stop-opacity:1.0000000;" />
    </linearGradient>
    <linearGradient
       id="linearGradient4163">
      <stop
         style="stop-color:#3b74bc;stop-opacity:1.0000000;"
         offset="0.0000000"
         id="stop4165" />
      <stop
         style="stop-color:#2d5990;stop-opacity:1.0000000;"
         offset="1.0000000"
         id="stop4167" />
    </linearGradient>
    <linearGradient
       id="linearGradient3824">
      <stop
         style="stop-color:#ffffff;stop-opacity:1;"
         offset="0"
         id="stop3826" />
      <stop
         style="stop-color:#c9c9c9;stop-opacity:1.0000000;"
         offset="1.0000000"
         id="stop3828" />
    </linearGradient>
    <linearGradient
       id="linearGradient3800">
      <stop
         style="stop-color:#f4d9b1;stop-opacity:1.0000000;"
         offset="0.0000000"
         id="stop3802" />
      <stop
         style="stop-color:#df9725;stop-opacity:1.0000000;"
         offset="1.0000000"
         id="stop3804" />
    </linearGradient>
    <radialGradient
       inkscape:collect="always"
       xlink:href="#linearGradient3800"
       id="radialGradient3806"
       cx="29.344931"
       cy="17.064077"
       fx="29.344931"
       fy="17.064077"
       r="9.1620579"
       gradientUnits="userSpaceOnUse" />
    <radialGradient
       inkscape:collect="always"
       xlink:href="#linearGradient4356"
       id="radialGradient3822"
       cx="31.112698"
       cy="19.008621"
       fx="31.112698"
       fy="19.008621"
       r="8.6620579"
       gradientUnits="userSpaceOnUse" />
    <radialGradient
       inkscape:collect="always"
       xlink:href="#linearGradient4163"
       id="radialGradient4169"
       cx="28.089741"
       cy="27.203083"
       fx="28.089741"
       fy="27.203083"
       r="13.56536"
       gradientTransform="matrix(1.297564,0,0,0.884831,-15.3585,1.815469)"
       gradientUnits="userSpaceOnUse" />
    <radialGradient
       inkscape:collect="always"
       xlink:href="#linearGradient3800"
       id="radialGradient4171"
       gradientUnits="userSpaceOnUse"
       cx="29.344931"
       cy="17.064077"
       fx="29.344931"
       fy="17.064077"
       r="9.1620579"
       gradientTransform="matrix(0.787998,0,0,0.787998,6.221198,3.617627)" />
    <linearGradient
       inkscape:collect="always"
       xlink:href="#linearGradient3824"
       id="linearGradient4175"
       gradientUnits="userSpaceOnUse"
       x1="30.935921"
       y1="29.553486"
       x2="30.935921"
       y2="35.803486"
       gradientTransform="translate(0.707108)" />
    <radialGradient
       inkscape:collect="always"
       xlink:href="#linearGradient4356"
       id="radialGradient4179"
       gradientUnits="userSpaceOnUse"
       cx="31.112698"
       cy="19.008621"
       fx="31.112698"
       fy="19.008621"
       r="8.6620579" />
    <linearGradient
       inkscape:collect="always"
       xlink:href="#linearGradient3824"
       id="linearGradient4326"
       gradientUnits="userSpaceOnUse"
       gradientTransform="translate(-12.41789,-7)"
       x1="30.935921"
       y1="29.553486"
       x2="30.935921"
       y2="35.803486" />
    <radialGradient
       inkscape:collect="always"
       xlink:href="#linearGradient4338"
       id="radialGradient4328"
       gradientUnits="userSpaceOnUse"
       gradientTransform="matrix(0.787998,0,0,0.787998,6.221198,3.617627)"
       cx="29.344931"
       cy="17.064077"
       fx="29.344931"
       fy="17.064077"
       r="9.1620579" />
    <radialGradient
       inkscape:collect="always"
       xlink:href="#linearGradient4356"
       id="radialGradient4330"
       gradientUnits="userSpaceOnUse"
       cx="31.112698"
       cy="19.008621"
       fx="31.112698"
       fy="19.008621"
       r="8.6620579" />
    <linearGradient
       inkscape:collect="always"
       xlink:href="#linearGradient3824"
       id="linearGradient4332"
       gradientUnits="userSpaceOnUse"
       x1="30.935921"
       y1="29.553486"
       x2="30.935921"
       y2="35.803486"
       gradientTransform="translate(-13.125,-7)" />
    <radialGradient
       inkscape:collect="always"
       xlink:href="#linearGradient4356"
       id="radialGradient4336"
       gradientUnits="userSpaceOnUse"
       cx="31.112698"
       cy="19.008621"
       fx="31.112698"
       fy="19.008621"
       r="8.6620579" />
    <radialGradient
       inkscape:collect="always"
       xlink:href="#linearGradient4344"
       id="radialGradient4350"
       cx="16.214741"
       cy="19.836468"
       fx="16.214741"
       fy="19.836468"
       r="13.56536"
       gradientTransform="matrix(1,0,0,0.681917,0,8.233773)"
       gradientUnits="userSpaceOnUse" />
    <linearGradient
       inkscape:collect="always"
       xlink:href="#linearGradient4356"
       id="linearGradient4372"
       gradientUnits="userSpaceOnUse"
       gradientTransform="rotate(10.462267,50.119816,-43.534606)"
       x1="20.661695"
       y1="35.817974"
       x2="22.626925"
       y2="36.217758" />
    <linearGradient
       inkscape:collect="always"
       xlink:href="#linearGradient4356"
       id="linearGradient4374"
       gradientUnits="userSpaceOnUse"
       gradientTransform="matrix(-0.977685,0.210075,0.210075,0.977685,41.80576,-11.11866)"
       x1="22.686766"
       y1="36.3904"
       x2="21.408455"
       y2="35.739632" />
    <radialGradient
       inkscape:collect="always"
       xlink:href="#linearGradient4344"
       id="radialGradient1381"
       gradientUnits="userSpaceOnUse"
       gradientTransform="matrix(1,0,0,0.681917,0,8.233773)"
       cx="16.214741"
       cy="19.836468"
       fx="16.214741"
       fy="19.836468"
       r="13.56536" />
    <radialGradient
       inkscape:collect="always"
       xlink:href="#linearGradient4467"
       id="radialGradient2738"
       gradientUnits="userSpaceOnUse"
       gradientTransform="matrix(0.3617572,0,0,0.31420226,-14.276512,-3.6161333)"
       cx="15.414371"
       cy="13.078408"
       fx="15.414371"
       fy="13.078408"
       r="6.6562500" />
    <radialGradient
       inkscape:collect="always"
       xlink:href="#linearGradient4454"
       id="radialGradient2736"
       gradientUnits="userSpaceOnUse"
       gradientTransform="matrix(-0.13951499,0,0,0.13951499,40.197245,4.4097551)"
       cx="18.240929"
       cy="21.817987"
       fx="18.240929"
       fy="21.817987"
       r="8.3085051" />
    <linearGradient
       inkscape:collect="always"
       xlink:href="#linearGradient2366"
       id="linearGradient2734"
       gradientUnits="userSpaceOnUse"
       gradientTransform="matrix(-0.13951499,0,0,0.13951499,42.569751,3.4852018)"
       x1="18.292673"
       y1="13.602121"
       x2="17.500893"
       y2="25.743469" />
    <linearGradient
       inkscape:collect="always"
       xlink:href="#linearGradient4440"
       id="linearGradient2732"
       gradientUnits="userSpaceOnUse"
       gradientTransform="matrix(-0.18619572,0,0,0.18015458,50.100699,-2.0144536)"
       x1="30.656250"
       y1="34.000000"
       x2="33.218750"
       y2="31.062500" />
    <linearGradient
       inkscape:collect="always"
       xlink:href="#linearGradient2846"
       id="linearGradient2730"
       gradientUnits="userSpaceOnUse"
       gradientTransform="matrix(-0.13951499,0,0,0.13951499,49.127743,-0.97358004)"
       x1="27.366341"
       y1="26.580296"
       x2="31.335964"
       y2="30.557772" />
    <linearGradient
       id="linearGradient4467">
      <stop
         id="stop4469"
         offset="0"
         style="stop-color:#ffffff;stop-opacity:1;" />
      <stop
         id="stop4471"
         offset="1.0000000"
         style="stop-color:#ffffff;stop-opacity:0.24761905;" />
    </linearGradient>
    <linearGradient
       id="linearGradient4454">
      <stop
         id="stop4456"
         offset="0.0000000"
         style="stop-color:#729fcf;stop-opacity:0.20784314;" />
      <stop
         id="stop4458"
         offset="1.0000000"
         style="stop-color:#729fcf;stop-opacity:0.67619050;" />
    </linearGradient>
    <linearGradient
       id="linearGradient2366">
      <stop
         style="stop-color:#ffffff;stop-opacity:1;"
         offset="0"
         id="stop2368" />
      <stop
         id="stop2374"
         offset="0.50000000"
         style="stop-color:#ffffff;stop-opacity:0.21904762;" />
      <stop
         style="stop-color:#ffffff;stop-opacity:1.0000000;"
         offset="1.0000000"
         id="stop2370" />
    </linearGradient>
    <linearGradient
       id="linearGradient4440">
      <stop
         id="stop4442"
         offset="0"
         style="stop-color:#7d7d7d;stop-opacity:1;" />
      <stop
         style="stop-color:#b1b1b1;stop-opacity:1.0000000;"
         offset="0.50000000"
         id="stop4448" />
      <stop
         id="stop4444"
         offset="1.0000000"
         style="stop-color:#686868;stop-opacity:1.0000000;" />
    </linearGradient>
    <linearGradient
       id="linearGradient2846">
      <stop
         style="stop-color:#8a8a8a;stop-opacity:1.0000000;"
         offset="0.0000000"
         id="stop2848" />
      <stop
         style="stop-color:#484848;stop-opacity:1.0000000;"
         offset="1.0000000"
         id="stop2850" />
    </linearGradient>
    <linearGradient
       inkscape:collect="always"
       id="linearGradient2309">
      <stop
         style="stop-color:#ffffff;stop-opacity:1;"
         offset="0"
         id="stop2311" />
      <stop
         style="stop-color:#ffffff;stop-opacity:0;"
         offset="1"
         id="stop2313" />
    </linearGradient>
    <linearGradient
       inkscape:collect="always"
       id="linearGradient2301">
      <stop
         style="stop-color:#790000;stop-opacity:1"
         offset="0"
         id="stop2303" />
      <stop
         style="stop-color:#b03636;stop-opacity:1"
         offset="1"
         id="stop2305" />
    </linearGradient>
    <linearGradient
       inkscape:collect="always"
       id="linearGradient2286">
      <stop
         style="stop-color:#555753"
         offset="0"
         id="stop2288" />
      <stop
         style="stop-color:#555753;stop-opacity:0"
         offset="1"
         id="stop2290" />
    </linearGradient>
    <linearGradient
       inkscape:collect="always"
       id="linearGradient2276">
      <stop
         style="stop-color:#babdb6;stop-opacity:1;"
         offset="0"
         id="stop2278" />
      <stop
         style="stop-color:#8f9488;stop-opacity:1"
         offset="1"
         id="stop2280" />
    </linearGradient>
    <linearGradient
       inkscape:collect="always"
       id="linearGradient2258">
      <stop
         style="stop-color:#ffa4a4;stop-opacity:1"
         offset="0"
         id="stop2260" />
      <stop
         style="stop-color:#a40000"
         offset="1"
         id="stop2262" />
    </linearGradient>
    <linearGradient
       inkscape:collect="always"
       id="linearGradient2235">
      <stop
         style="stop-color:#cccccc;stop-opacity:1"
         offset="0"
         id="stop2237" />
      <stop
         style="stop-color:#9b9b9b;stop-opacity:1"
         offset="1"
         id="stop2239" />
    </linearGradient>
    <linearGradient
       inkscape:collect="always"
       id="linearGradient2229">
      <stop
         style="stop-color:#888a85"
         offset="0"
         id="stop2231" />
      <stop
         style="stop-color:#d3d7cf;stop-opacity:0;"
         offset="1"
         id="stop2233" />
    </linearGradient>
    <linearGradient
       id="linearGradient2221"
       inkscape:collect="always">
      <stop
         id="stop2223"
         offset="0"
         style="stop-color:#babdb6" />
      <stop
         id="stop2225"
         offset="1"
         style="stop-color:#d3d7cf;stop-opacity:0;" />
    </linearGradient>
    <linearGradient
       inkscape:collect="always"
       id="linearGradient2184">
      <stop
         style="stop-color:#ffffff;stop-opacity:1;"
         offset="0"
         id="stop2186" />
      <stop
         style="stop-color:#e3e3e3;stop-opacity:1"
         offset="1"
         id="stop2188" />
    </linearGradient>
    <radialGradient
       inkscape:collect="always"
       xlink:href="#linearGradient4356"
       id="radialGradient7516"
       gradientUnits="userSpaceOnUse"
       gradientTransform="matrix(1,0,0,0.237968,-1.864568e-14,28.93278)"
       cx="24.130018"
       cy="37.967922"
       fx="24.130018"
       fy="37.967922"
       r="16.528622" />
    <linearGradient
       inkscape:collect="always"
       xlink:href="#linearGradient2846"
       id="linearGradient7518"
       gradientUnits="userSpaceOnUse"
       x1="27.366341"
       y1="26.580296"
       x2="31.335964"
       y2="30.557772" />
    <linearGradient
       inkscape:collect="always"
       xlink:href="#linearGradient4440"
       id="linearGradient7520"
       gradientUnits="userSpaceOnUse"
       gradientTransform="matrix(1.334593,0,0,1.291292,-6.973842,-7.460658)"
       x1="30.656250"
       y1="34.000000"
       x2="33.218750"
       y2="31.062500" />
    <linearGradient
       inkscape:collect="always"
       xlink:href="#linearGradient2366"
       id="linearGradient7522"
       gradientUnits="userSpaceOnUse"
       x1="18.292673"
       y1="13.602121"
       x2="17.500893"
       y2="25.743469" />
    <radialGradient
       inkscape:collect="always"
       xlink:href="#linearGradient4454"
       id="radialGradient7524"
       gradientUnits="userSpaceOnUse"
       cx="18.240929"
       cy="21.817987"
       fx="18.240929"
       fy="21.817987"
       r="8.3085051" />
    <radialGradient
       inkscape:collect="always"
       xlink:href="#linearGradient4467"
       id="radialGradient7526"
       gradientUnits="userSpaceOnUse"
       gradientTransform="matrix(2.592963,-7.7469e-24,-5.714443e-24,2.252104,-25.05975,-18.941)"
       cx="15.414371"
       cy="13.078408"
       fx="15.414371"
       fy="13.078408"
       r="6.6562500" />
    <radialGradient
       inkscape:collect="always"
       xlink:href="#linearGradient2286"
       id="radialGradient7540"
       gradientUnits="userSpaceOnUse"
       gradientTransform="matrix(0.13951499,0,0,0.0418545,4.3158701,-1.8489069)"
       cx="24"
       cy="36.75"
       fx="24"
       fy="36.75"
       r="22.5" />
    <linearGradient
       inkscape:collect="always"
       xlink:href="#linearGradient2276"
       id="linearGradient7542"
       gradientUnits="userSpaceOnUse"
       x1="37.535713"
       y1="34.196426"
       x2="9.9285688"
       y2="20.089285"
       gradientTransform="matrix(0.13951499,0,0,0.13951499,3.2268193,-4.280431)" />
    <linearGradient
       inkscape:collect="always"
       xlink:href="#linearGradient2309"
       id="linearGradient7544"
       gradientUnits="userSpaceOnUse"
       x1="6.7230334"
       y1="37.683041"
       x2="37.804565"
       y2="29.096745"
       gradientTransform="matrix(0.13951499,0,0,0.13951499,3.2268193,-4.280431)" />
    <linearGradient
       inkscape:collect="always"
       xlink:href="#linearGradient2184"
       id="linearGradient7546"
       gradientUnits="userSpaceOnUse"
       x1="15.714286"
       y1="16.82852"
       x2="36.482143"
       y2="20.667807"
       gradientTransform="matrix(0.13951499,0,0,0.13951499,3.2268193,-4.280431)" />
    <linearGradient
       inkscape:collect="always"
       xlink:href="#linearGradient2235"
       id="linearGradient7548"
       gradientUnits="userSpaceOnUse"
       x1="19.940901"
       y1="10.918805"
       x2="24"
       y2="22.750927"
       gradientTransform="matrix(0.13951499,0,0,0.13951499,3.2268193,-4.280431)" />
    <linearGradient
       inkscape:collect="always"
       xlink:href="#linearGradient2221"
       id="linearGradient7550"
       gradientUnits="userSpaceOnUse"
       gradientTransform="matrix(-0.13951499,0,0,0.13951499,9.923539,-4.280431)"
       x1="24"
       y1="19.996655"
       x2="32"
       y2="19.90625" />
    <linearGradient
       inkscape:collect="always"
       xlink:href="#linearGradient2229"
       id="linearGradient7552"
       gradientUnits="userSpaceOnUse"
       gradientTransform="matrix(-0.13951499,0,0,0.13951499,9.923539,-4.280431)"
       x1="24"
       y1="19.505583"
       x2="19.982143"
       y2="19.550226" />
    <linearGradient
       inkscape:collect="always"
       xlink:href="#linearGradient2258"
       id="linearGradient7554"
       gradientUnits="userSpaceOnUse"
       x1="32.794643"
       y1="21.696428"
       x2="34.79464"
       y2="32.321426"
       gradientTransform="matrix(0.13951499,0,0,0.13951499,3.2268193,-4.280431)" />
    <linearGradient
       inkscape:collect="always"
       xlink:href="#linearGradient2301"
       id="linearGradient7556"
       gradientUnits="userSpaceOnUse"
       x1="23.955357"
       y1="10.008928"
       x2="29.214285"
       y2="30.276785"
       gradientTransform="matrix(0.13951499,0,0,0.13951499,3.2268193,-4.280431)" />
  </defs>
  <g
     inkscape:label="Layer 1"
     inkscape:groupmode="layer"
     id="layer1"
     transform="translate(-63.456747,-73.633723)">
    <g
       id="g849"
       transform="matrix(2.4268129,0,0,2.4268129,58.603121,61.499658)">
      <path
         d="m 10.791,50.195 a 2.505,2.505 0 0 0 -2.502,2.51 2.505,2.505 0 0 0 2.502,2.512 2.5,2.5 0 0 0 2.498,-2.512 2.5,2.5 0 0 0 -2.498,-2.51"
         fill="currentColor"
         id="path831" />
      <path
         d="m 61.479,24.738 h -2.766 l 0.548,-1.563 c 0.451,-0.998 0.338,-1.813 -0.243,-1.879 H 55.245 L 55.5,20.163 c 0.285,-1.275 -0.121,-2.309 -0.905,-2.309 H 51.5 l 0.301,-2.588 c 0.287,-1.275 -0.12,-2.309 -0.904,-2.309 h -4.24 c -0.188,-1.14 -0.881,-1.988 -1.714,-1.988 H 24.352 V 7.596 C 24.352,6.162 23.563,5 22.586,5 H 3.766 C 2.789,5 2,6.162 2,7.596 V 59 H 46.709 L 61.723,26.617 c 0.451,-0.998 0.338,-1.812 -0.244,-1.879 M 44.834,57 H 3.875 V 7.596 C 3.875,7.307 3.941,7.109 3.996,7 h 18.358 c 0.056,0.108 0.122,0.308 0.122,0.596 v 5.375 h 22.235 c 0.058,0.116 0.122,0.323 0.122,0.596 V 57 Z m 1.875,-42.041 h 3.24 l -0.007,0.062 -3.233,27.622 V 14.959 m 4.559,4.896 h 2.375 l -4.89,21.597 2.515,-21.597 m 3.523,3.442 h 2.426 l -6.854,19.561 4.428,-19.561 m -1.61,17.23 4.833,-13.789 h 1.562 l -6.395,13.789"
         fill="currentColor"
         id="path833" />
      <path
         d="m 23.92,50.195 a 2.499,2.499 0 0 0 -2.498,2.51 2.5,2.5 0 1 0 5,0 2.506,2.506 0 0 0 -2.502,-2.51"
         fill="currentColor"
         id="path835" />
      <ellipse
         cx="36.897999"
         cy="52.706001"
         rx="2.5"
         ry="2.5109999"
         fill="currentColor"
         id="ellipse837" />
    </g>
    <g
       inkscape:label="Livello 1"
       id="layer1-9"
       transform="matrix(1.8964509,0,0,1.8964509,72.609494,98.277198)">
      <g
         id="g7528"
         transform="translate(0,4)">
        <ellipse
           transform="matrix(1.066667,0,0,0.962963,-1.600001,1.111111)"
           id="path2284"
           style="color:#000000;display:block;overflow:visible;visibility:visible;opacity:0.501961;fill:url(#radialGradient7540);fill-opacity:1;fill-rule:nonzero;stroke:none;stroke-width:1;stroke-linecap:round;stroke-linejoin:miter;stroke-miterlimit:4;stroke-dasharray:none;stroke-dashoffset:17.85;stroke-opacity:1;marker:none;marker-start:none;marker-mid:none;marker-end:none"
           cx="24"
           cy="36.75"
           rx="22.5"
           ry="6.75" />
        <path
           sodipodi:nodetypes="ccccccccc"
           id="rect1304"
           d="m 4.5,11.5 h 39 l 4,27 H 29 l -1,-1 c -2,1.5 -6,1.5 -8,0 l -1,1 H 0.5 Z"
           style="color:#000000;display:block;overflow:visible;visibility:visible;fill:#523856;fill-opacity:1;fill-rule:nonzero;stroke:#3e263b;stroke-width:1;stroke-linecap:round;stroke-linejoin:round;stroke-miterlimit:4;stroke-dasharray:none;stroke-dashoffset:17.85;stroke-opacity:1;marker:none;marker-start:none;marker-mid:none;marker-end:none" />
        <path
           d="M 5.2929688,12.417969 1.5644531,37.582031 H 18.619141 l 0.732421,-0.730469 a 0.91818287,0.91818287 0 0 1 1.199219,-0.08594 c 0.764969,0.573727 2.102234,0.941406 3.449219,0.941406 1.346985,0 2.68425,-0.367679 3.449219,-0.941406 a 0.91818287,0.91818287 0 0 1 1.199219,0.08594 l 0.732421,0.730469 H 46.435547 L 42.707031,12.417969 Z"
           inkscape:href="#rect1304"
           id="path2274"
           style="color:#000000;display:block;overflow:visible;visibility:visible;opacity:0.133333;fill:none;fill-opacity:1;fill-rule:nonzero;stroke:#ffffff;stroke-width:1;stroke-linecap:round;stroke-linejoin:round;stroke-miterlimit:4;stroke-dasharray:none;stroke-dashoffset:17.85;stroke-opacity:1;marker:none;marker-start:none;marker-mid:none;marker-end:none"
           xlink:href="#rect1304"
           inkscape:original="M 4.5 11.5 L 0.5 38.5 L 19 38.5 L 20 37.5 C 22 39 26 39 28 37.5 L 29 38.5 L 47.5 38.5 L 43.5 11.5 L 4.5 11.5 z "
           inkscape:radius="-0.91809106"
           sodipodi:type="inkscape:offset" />
        <path
           sodipodi:nodetypes="cccccccc"
           id="path2180"
           d="m 2,36.5 c 5.6666667,0 14,-1.5 17,0 3,-2.5 7,-2.5 10,0 3,-1.5 12,0 17,0 L 45.5,34 C 38.5,31.5 29,28.5 24,33 19,28.5 9.5,31.5 2.5,34 Z"
           style="fill:url(#linearGradient7542);fill-opacity:1;fill-rule:evenodd;stroke:#888a85;stroke-width:1;stroke-linecap:butt;stroke-linejoin:miter;stroke-miterlimit:4;stroke-dasharray:none;stroke-opacity:1" />
        <path
           d="M 14.134766,31.923828 C 10.59756,32.380242 6.7776317,33.623683 3.4160156,34.8125 l -0.109375,0.550781 c 2.5231722,-0.07938 5.3706028,-0.318985 8.1308594,-0.482422 2.903784,-0.171934 5.4326,-0.189536 7.369141,0.525391 1.345402,-0.988875 2.849977,-1.529952 4.398437,-1.675781 -2.165402,-1.888461 -5.389859,-2.281538 -9.070312,-1.806641 z m 19.730468,0 c -3.680453,-0.474897 -6.90491,-0.08182 -9.070312,1.806641 1.550154,0.145988 3.055858,0.688807 4.402344,1.679687 1.980232,-0.729036 4.626673,-0.701601 7.613281,-0.529297 2.819945,0.162689 5.580605,0.399527 7.882812,0.480469 L 44.583984,34.8125 C 41.222368,33.623683 37.40244,32.380242 33.865234,31.923828 Z"
           inkscape:href="#path2180"
           id="path2266"
           style="opacity:0.301961;fill:none;fill-opacity:1;fill-rule:evenodd;stroke:url(#linearGradient7544);stroke-width:1;stroke-linecap:butt;stroke-linejoin:miter;stroke-miterlimit:4;stroke-dasharray:none;stroke-opacity:1"
           xlink:href="#path2180"
           inkscape:original="M 14 30.875 C 10.125 31.375 6 32.75 2.5 34 L 2 36.5 C 7.6666667 36.5 16 35 19 36.5 C 22 34 26 34 29 36.5 C 32 35 41 36.5 46 36.5 L 45.5 34 C 38.5 31.5 29 28.5 24 33 C 21.5 30.75 17.875 30.375 14 30.875 z "
           inkscape:radius="-1.0582203"
           sodipodi:type="inkscape:offset" />
        <path
           sodipodi:nodetypes="ccccccc"
           id="path2182"
           d="M 2.5,34 C 9,31.5 20,29 24,33 c 4,-4 15,-1.5 21.5,1 l -3,-23.5 C 37,8 27.5,6 24,9 20,6 12,8 5.5,10.5 Z"
           style="fill:url(#linearGradient7546);fill-opacity:1;fill-rule:evenodd;stroke:url(#linearGradient7548);stroke-width:1;stroke-linecap:butt;stroke-linejoin:miter;stroke-miterlimit:4;stroke-dasharray:none;stroke-opacity:1" />
        <path
           sodipodi:nodetypes="ccccc"
           id="rect2192"
           d="M 24,9.5 C 22,8 19.5,7.5 16,8 v 22.5 c 2,-1 6,0 8,2 z"
           style="color:#000000;display:block;overflow:visible;visibility:visible;fill:url(#linearGradient7550);fill-opacity:1;fill-rule:nonzero;stroke:none;stroke-width:1;stroke-linecap:round;stroke-linejoin:miter;stroke-miterlimit:4;stroke-dashoffset:17.85;stroke-opacity:1;marker:none;marker-start:none;marker-mid:none;marker-end:none" />
        <path
           sodipodi:nodetypes="ccccc"
           id="path2195"
           d="M 24,9.5 C 25.221264,8.803878 26.327771,7.9069322 28,8 l 1,22.5 c -1.5,-0.5 -3.5,1 -5,2 z"
           style="color:#000000;display:block;overflow:visible;visibility:visible;fill:url(#linearGradient7552);fill-opacity:1;fill-rule:nonzero;stroke:none;stroke-width:1;stroke-linecap:round;stroke-linejoin:miter;stroke-miterlimit:4;stroke-dashoffset:17.85;stroke-opacity:1;marker:none;marker-start:none;marker-mid:none;marker-end:none" />
        <path
           d="M 16.992188,8.4921875 C 13.685049,8.7654043 9.8304543,9.9013689 6.3457031,11.208984 L 3.6074219,32.671875 C 6.7283041,31.572366 10.44281,30.531219 14.087891,30.138672 17.934786,29.724391 21.58613,30.012763 24,31.896484 c 2.41387,-1.883721 6.065214,-2.172093 9.912109,-1.757812 3.645081,0.392547 7.359587,1.433694 10.480469,2.533203 L 41.650391,11.177734 C 39.036245,10.044281 35.599922,9.0112695 32.384766,8.609375 28.998161,8.1860494 25.960942,8.5415698 24.603516,9.7050781 a 0.92859821,0.92859821 0 0 1 -1.160157,0.037109 C 22.601824,9.1110362 21.51035,8.7168561 20.208984,8.5371094 19.23296,8.4022994 18.14693,8.3967894 16.992188,8.4921875 Z"
           inkscape:href="#path2182"
           id="path2243"
           style="opacity:0.65098;fill:none;fill-opacity:1;fill-rule:evenodd;stroke:#ffffff;stroke-width:1;stroke-linecap:butt;stroke-linejoin:miter;stroke-miterlimit:4;stroke-dasharray:none;stroke-opacity:1"
           xlink:href="#path2182"
           inkscape:original="M 20.335938 7.6171875 C 16.09375 7.03125 10.375 8.625 5.5 10.5 L 2.5 34 C 9 31.5 20 29 24 33 C 28 29 39 31.5 45.5 34 L 42.5 10.5 C 37 8 27.5 6 24 9 C 23 8.25 21.75 7.8125 20.335938 7.6171875 z "
           inkscape:radius="-0.92850536"
           sodipodi:type="inkscape:offset" />
        <path
           sodipodi:nodetypes="cccccccc"
           id="path2227"
           d="M 24.455357,8.7321429 C 24.5,20.5 34,20 33.5,30.5 l -1,4 1.5,-0.5 1,1 0.5,-4 C 36,20 24.544643,19.089286 24.5,8.5 Z"
           style="fill:url(#linearGradient7554);fill-opacity:1;fill-rule:evenodd;stroke:url(#linearGradient7556);stroke-width:1;stroke-linecap:square;stroke-linejoin:miter;stroke-miterlimit:4;stroke-dasharray:none;stroke-opacity:1" />
      </g>
      <g
         style="display:inline"
         id="g2711"
         transform="translate(3.953149,-5.07532)"
         inkscape:r_cx="true"
         inkscape:r_cy="true">
        <path
           transform="matrix(-0.643277,0,0,0.643277,31.49802,4.828704)"
           sodipodi:nodetypes="csscccscccscczzzz"
           id="path2844"
           d="m 18.627569,3.1435548 c -8.13913,0 -14.7448008,6.6056711 -14.7448008,14.7448012 0,8.13913 6.6056708,14.744802 14.7448008,14.744802 3.479555,0 6.551001,-1.384393 9.073723,-3.402647 -0.205377,1.006881 -0.07803,2.035368 0.756144,2.759925 l 10.964084,9.52741 c 1.233416,1.071329 3.087462,0.93096 4.15879,-0.302457 1.071328,-1.233418 0.930959,-3.087462 -0.302457,-4.15879 L 32.313769,27.529188 c -0.671527,-0.583279 -1.492878,-0.755969 -2.306238,-0.642722 1.9867,-2.512422 3.364839,-5.548803 3.364839,-8.99811 0,-8.1391301 -6.605671,-14.7448012 -14.744801,-14.7448012 z m -0.07562,1.2261833 c 7.639459,0 13.291775,4.7889505 13.291775,13.2917749 0,8.675113 -5.81669,13.291775 -13.291775,13.291775 -7.302949,0 -13.2917734,-5.478092 -13.2917734,-13.291775 0,-7.9841069 5.8246384,-13.291775 13.2917734,-13.2917749 z"
           style="color:#000000;display:inline;overflow:visible;visibility:visible;fill:#dcdcdc;fill-opacity:1;fill-rule:evenodd;stroke:url(#linearGradient2730);stroke-width:3.10908;stroke-linecap:round;stroke-linejoin:miter;stroke-miterlimit:10;stroke-dasharray:none;stroke-dashoffset:0;stroke-opacity:1;marker:none;marker-start:none;marker-mid:none;marker-end:none"
           inkscape:r_cx="true"
           inkscape:r_cy="true" />
        <path
           transform="matrix(-0.643277,0,0,0.643277,31.49802,4.828704)"
           style="color:#000000;display:inline;overflow:visible;visibility:visible;fill:#dcdcdc;fill-opacity:1;fill-rule:evenodd;stroke:none;stroke-width:1;stroke-linecap:round;stroke-linejoin:miter;stroke-miterlimit:10;stroke-dasharray:none;stroke-dashoffset:0;stroke-opacity:1;marker:none;marker-start:none;marker-mid:none;marker-end:none"
           d="m 18.602905,3.0803551 c -8.16544,0 -14.7924642,6.627024 -14.7924642,14.7924639 0,8.16544 6.6270242,14.792464 14.7924642,14.792464 3.490803,0 6.572177,-1.388867 9.103055,-3.413645 -0.206041,1.010136 -0.07829,2.041947 0.758587,2.768846 l 10.999526,9.558207 c 1.237403,1.074792 3.097442,0.93397 4.172233,-0.303435 1.074791,-1.237404 0.933968,-3.097442 -0.303435,-4.172233 L 32.333346,27.544815 c -0.673698,-0.585164 -1.497704,-0.758413 -2.313693,-0.644799 1.993122,-2.520544 3.375716,-5.56674 3.375716,-9.027197 0,-8.1654399 -6.627024,-14.7924639 -14.792464,-14.7924639 z m -0.07586,3.1860692 c 6.281108,2e-7 11.378818,5.0977107 11.378818,11.3788187 0,6.281108 -5.09771,11.378818 -11.378818,11.378818 -6.281108,0 -11.3788184,-5.09771 -11.3788184,-11.378818 2e-7,-6.281108 5.0977104,-11.3788187 11.3788184,-11.3788187 z"
           id="path4430"
           inkscape:r_cx="true"
           inkscape:r_cy="true" />
        <path
           transform="matrix(-0.643277,0,0,0.643277,31.49802,4.828704)"
           style="color:#000000;display:inline;overflow:visible;visibility:visible;fill:url(#linearGradient2732);fill-opacity:1;fill-rule:evenodd;stroke:none;stroke-width:1;stroke-linecap:round;stroke-linejoin:miter;stroke-miterlimit:10;stroke-dasharray:none;stroke-dashoffset:0;stroke-opacity:1;marker:none;marker-start:none;marker-mid:none;marker-end:none"
           d="m 39.507004,41.57769 c -0.478672,-2.273187 1.39733,-4.811422 3.584053,-4.788375 0,0 -10.760367,-9.258111 -10.760367,-9.258111 -2.944791,-0.05671 -4.269502,2.272616 -3.776814,4.599922 z"
           id="path4438"
           sodipodi:nodetypes="ccccc"
           inkscape:r_cx="true"
           inkscape:r_cy="true" />
        <circle
           style="color:#000000;display:inline;overflow:visible;visibility:visible;fill:none;fill-opacity:1;fill-rule:evenodd;stroke:url(#linearGradient2734);stroke-width:1.24788;stroke-linecap:round;stroke-linejoin:miter;stroke-miterlimit:10;stroke-dasharray:none;stroke-dashoffset:0;stroke-opacity:1;marker:none;marker-start:none;marker-mid:none;marker-end:none"
           id="path4450"
           transform="matrix(-0.801358,0,0,0.801358,33.70147,0.855159)"
           inkscape:r_cx="true"
           inkscape:r_cy="true"
           cx="17.500893"
           cy="18.920233"
           r="11.048544" />
        <rect
           style="color:#000000;display:inline;overflow:visible;visibility:visible;opacity:0.433155;fill:none;fill-opacity:1;fill-rule:evenodd;stroke:#ffffff;stroke-width:1.55459;stroke-linecap:round;stroke-linejoin:miter;stroke-miterlimit:10;stroke-dasharray:none;stroke-dashoffset:0;stroke-opacity:1;marker:none;marker-start:none;marker-mid:none;marker-end:none"
           id="rect4495"
           width="19.048439"
           height="4.4404783"
           x="40.373337"
           y="0.14086054"
           rx="0.46340272"
           ry="0.40945899"
           transform="matrix(-0.484379,0.4233,0.417423,0.489452,31.49802,4.828704)"
           inkscape:r_cx="true"
           inkscape:r_cy="true" />
        <circle
           style="color:#000000;visibility:visible;fill:url(#radialGradient2736);fill-opacity:1;fill-rule:evenodd;stroke:#3063a3;stroke-width:1.11149;stroke-linecap:round;stroke-linejoin:miter;stroke-miterlimit:10;stroke-dashoffset:0;stroke-opacity:1;marker:none;marker-start:none;marker-mid:none;marker-end:none"
           id="path4452"
           transform="matrix(-0.899697,0,0,0.899697,35.502,-0.509826)"
           inkscape:r_cx="true"
           inkscape:r_cy="true"
           cx="17.589281"
           cy="18.478292"
           r="8.3085051" />
        <path
           transform="matrix(0.643277,0,0,0.643277,7.855933,4.828704)"
           style="color:#000000;display:inline;overflow:visible;visibility:visible;opacity:0.834225;fill:url(#radialGradient2738);fill-opacity:1;fill-rule:evenodd;stroke:none;stroke-width:1;stroke-linecap:round;stroke-linejoin:miter;stroke-miterlimit:10;stroke-dasharray:none;stroke-dashoffset:0;stroke-opacity:1;marker:none;marker-start:none;marker-mid:none;marker-end:none"
           d="m 18.156915,7.3966938 c -5.20759,0 -9.4245469,4.2169572 -9.4245469,9.4245472 0,1.503975 0.4203072,2.887773 1.0471719,4.149903 1.25238,0.461613 2.582757,0.775683 3.994767,0.775683 6.170955,0 11.099282,-4.861637 11.480106,-10.937129 C 23.523449,8.7641668 21.044374,7.3966938 18.156915,7.3966938 Z"
           id="path4462"
           inkscape:r_cx="true"
           inkscape:r_cy="true" />
      </g>
    </g>
  </g>
</svg>
